<?xml version="1.0" encoding="UTF-8" standalone="no"?>
<!DOCTYPE svg PUBLIC "-//W3C//DTD SVG 1.1//EN"
 "http://www.w3.org/Graphics/SVG/1.1/DTD/svg11.dtd">
<!-- Generated by graphviz version 7.1.0 (0)
 -->
<!-- Title: A Pages: 1 -->
<svg width="314pt" height="788pt"
 viewBox="0.00 0.00 314.00 788.00" xmlns="http://www.w3.org/2000/svg" xmlns:xlink="http://www.w3.org/1999/xlink">
<g id="graph0" class="graph" transform="scale(1 1) rotate(0) translate(4 784)">
<title>A</title>
<polygon fill="white" stroke="none" points="-4,4 -4,-784 310,-784 310,4 -4,4"/>
<!-- start -->
<g id="node1" class="node">
<title>start</title>
<text text-anchor="middle" x="150" y="-758.3" font-family="Times,serif" font-size="14.00">start</text>
</g>
<!-- r1_0 -->
<g id="node2" class="node">
<title>r1_0</title>
<ellipse fill="none" stroke="black" cx="150" cy="-690" rx="27" ry="18"/>
<text text-anchor="middle" x="150" y="-686.3" font-family="Times,serif" font-size="14.00">0</text>
</g>
<!-- start&#45;&gt;r1_0 -->
<g id="edge1" class="edge">
<title>start&#45;&gt;r1_0</title>
<path fill="none" stroke="black" d="M150,-744.05C150,-736.68 150,-727.84 150,-719.51"/>
<polygon fill="black" stroke="black" points="153.5,-719.79 150,-709.79 146.5,-719.79 153.5,-719.79"/>
</g>
<!-- r2_0 -->
<g id="node3" class="node">
<title>r2_0</title>
<ellipse fill="none" stroke="black" cx="150" cy="-618" rx="27" ry="18"/>
<text text-anchor="middle" x="150" y="-614.3" font-family="Times,serif" font-size="14.00">0</text>
</g>
<!-- r1_0&#45;&gt;r2_0 -->
<g id="edge2" class="edge">
<title>r1_0&#45;&gt;r2_0</title>
<path fill="none" stroke="black" d="M150,-671.7C150,-664.41 150,-655.73 150,-647.54"/>
<polygon fill="black" stroke="black" points="153.5,-647.62 150,-637.62 146.5,-647.62 153.5,-647.62"/>
</g>
<!-- r3_0 -->
<g id="node4" class="node">
<title>r3_0</title>
<ellipse fill="none" stroke="black" cx="150" cy="-546" rx="27" ry="18"/>
<text text-anchor="middle" x="150" y="-542.3" font-family="Times,serif" font-size="14.00">0</text>
</g>
<!-- r2_0&#45;&gt;r3_0 -->
<g id="edge3" class="edge">
<title>r2_0&#45;&gt;r3_0</title>
<path fill="none" stroke="black" d="M150,-599.7C150,-592.41 150,-583.73 150,-575.54"/>
<polygon fill="black" stroke="black" points="153.5,-575.62 150,-565.62 146.5,-575.62 153.5,-575.62"/>
</g>
<!-- r4_0A -->
<g id="node5" class="node">
<title>r4_0A</title>
<ellipse fill="none" stroke="black" cx="150" cy="-474" rx="27" ry="18"/>
<text text-anchor="middle" x="150" y="-470.3" font-family="Times,serif" font-size="14.00">0A</text>
</g>
<!-- r3_0&#45;&gt;r4_0A -->
<g id="edge4" class="edge">
<title>r3_0&#45;&gt;r4_0A</title>
<path fill="none" stroke="black" d="M150,-527.7C150,-520.41 150,-511.73 150,-503.54"/>
<polygon fill="black" stroke="black" points="153.5,-503.62 150,-493.62 146.5,-503.62 153.5,-503.62"/>
</g>
<!-- r5_1B -->
<g id="node6" class="node">
<title>r5_1B</title>
<ellipse fill="none" stroke="black" cx="150" cy="-402" rx="27" ry="18"/>
<text text-anchor="middle" x="150" y="-398.3" font-family="Times,serif" font-size="14.00">1B</text>
</g>
<!-- r4_0A&#45;&gt;r5_1B -->
<g id="edge5" class="edge">
<title>r4_0A&#45;&gt;r5_1B</title>
<path fill="none" stroke="black" d="M150,-455.7C150,-448.41 150,-439.73 150,-431.54"/>
<polygon fill="black" stroke="black" points="153.5,-431.62 150,-421.62 146.5,-431.62 153.5,-431.62"/>
</g>
<!-- r6_0B -->
<g id="node7" class="node">
<title>r6_0B</title>
<ellipse fill="none" stroke="black" cx="120" cy="-330" rx="27" ry="18"/>
<text text-anchor="middle" x="120" y="-326.3" font-family="Times,serif" font-size="14.00">0B</text>
</g>
<!-- r5_1B&#45;&gt;r6_0B -->
<g id="edge6" class="edge">
<title>r5_1B&#45;&gt;r6_0B</title>
<path fill="none" stroke="black" d="M142.89,-384.41C139.49,-376.48 135.33,-366.78 131.5,-357.84"/>
<polygon fill="black" stroke="black" points="134.81,-356.67 127.65,-348.86 128.38,-359.43 134.81,-356.67"/>
</g>
<!-- r6_1B -->
<g id="node8" class="node">
<title>r6_1B</title>
<ellipse fill="none" stroke="black" cx="182" cy="-330" rx="27" ry="18"/>
<text text-anchor="middle" x="182" y="-326.3" font-family="Times,serif" font-size="14.00">1B</text>
</g>
<!-- r5_1B&#45;&gt;r6_1B -->
<g id="edge7" class="edge">
<title>r5_1B&#45;&gt;r6_1B</title>
<path fill="none" stroke="black" d="M157.58,-384.41C161.21,-376.48 165.64,-366.78 169.73,-357.84"/>
<polygon fill="black" stroke="black" points="172.87,-359.4 173.84,-348.85 166.5,-356.49 172.87,-359.4"/>
</g>
<!-- r7_1A -->
<g id="node9" class="node">
<title>r7_1A</title>
<ellipse fill="none" stroke="black" cx="118" cy="-258" rx="27" ry="18"/>
<text text-anchor="middle" x="118" y="-254.3" font-family="Times,serif" font-size="14.00">1A</text>
</g>
<!-- r6_0B&#45;&gt;r7_1A -->
<g id="edge8" class="edge">
<title>r6_0B&#45;&gt;r7_1A</title>
<path fill="none" stroke="black" d="M119.51,-311.7C119.3,-304.41 119.05,-295.73 118.82,-287.54"/>
<polygon fill="black" stroke="black" points="122.32,-287.51 118.53,-277.62 115.32,-287.71 122.32,-287.51"/>
</g>
<!-- r7_0A -->
<g id="node10" class="node">
<title>r7_0A</title>
<ellipse fill="none" stroke="black" cx="182" cy="-258" rx="27" ry="18"/>
<text text-anchor="middle" x="182" y="-254.3" font-family="Times,serif" font-size="14.00">0A</text>
</g>
<!-- r6_1B&#45;&gt;r7_0A -->
<g id="edge9" class="edge">
<title>r6_1B&#45;&gt;r7_0A</title>
<path fill="none" stroke="black" d="M182,-311.7C182,-304.41 182,-295.73 182,-287.54"/>
<polygon fill="black" stroke="black" points="185.5,-287.62 182,-277.62 178.5,-287.62 185.5,-287.62"/>
</g>
<!-- r8_0B -->
<g id="node11" class="node">
<title>r8_0B</title>
<ellipse fill="none" stroke="black" cx="57" cy="-182" rx="27" ry="18"/>
<text text-anchor="middle" x="57" y="-178.3" font-family="Times,serif" font-size="14.00">0B</text>
</g>
<!-- r7_1A&#45;&gt;r8_0B -->
<g id="edge10" class="edge">
<title>r7_1A&#45;&gt;r8_0B</title>
<path fill="none" stroke="black" d="M105.36,-241.67C97.1,-231.65 86.14,-218.35 76.74,-206.95"/>
<polygon fill="black" stroke="black" points="79.65,-204.97 70.59,-199.48 74.25,-209.42 79.65,-204.97"/>
</g>
<!-- r8_1B -->
<g id="node12" class="node">
<title>r8_1B</title>
<ellipse fill="none" stroke="black" cx="118" cy="-182" rx="27" ry="18"/>
<text text-anchor="middle" x="118" y="-178.3" font-family="Times,serif" font-size="14.00">1B</text>
</g>
<!-- r7_1A&#45;&gt;r8_1B -->
<g id="edge11" class="edge">
<title>r7_1A&#45;&gt;r8_1B</title>
<path fill="none" stroke="black" d="M118,-239.84C118,-231.49 118,-221.23 118,-211.74"/>
<polygon fill="black" stroke="black" points="121.5,-211.84 118,-201.84 114.5,-211.84 121.5,-211.84"/>
</g>
<!-- r8_bot -->
<g id="node13" class="node">
<title>r8_bot</title>
<ellipse fill="none" stroke="black" cx="213" cy="-182" rx="27" ry="18"/>
<ellipse fill="none" stroke="black" cx="213" cy="-182" rx="31" ry="22"/>
<text text-anchor="middle" x="213" y="-178.3" font-family="Times,serif" font-size="14.00">⊥</text>
</g>
<!-- r7_0A&#45;&gt;r8_bot -->
<g id="edge12" class="edge">
<title>r7_0A&#45;&gt;r8_bot</title>
<path fill="none" stroke="black" d="M189.03,-240.21C192.29,-232.45 196.25,-222.98 200.02,-213.99"/>
<polygon fill="black" stroke="black" points="203.23,-215.39 203.86,-204.81 196.77,-212.68 203.23,-215.39"/>
</g>
<!-- r9_1A -->
<g id="node14" class="node">
<title>r9_1A</title>
<ellipse fill="none" stroke="black" cx="27" cy="-102" rx="27" ry="18"/>
<text text-anchor="middle" x="27" y="-98.3" font-family="Times,serif" font-size="14.00">1A</text>
</g>
<!-- r8_0B&#45;&gt;r9_1A -->
<g id="edge13" class="edge">
<title>r8_0B&#45;&gt;r9_1A</title>
<path fill="none" stroke="black" d="M50.49,-164.08C46.72,-154.26 41.87,-141.67 37.57,-130.47"/>
<polygon fill="black" stroke="black" points="40.9,-129.38 34.04,-121.3 34.36,-131.89 40.9,-129.38"/>
</g>
<!-- r9_0B -->
<g id="node15" class="node">
<title>r9_0B</title>
<ellipse fill="none" stroke="black" cx="88" cy="-102" rx="27" ry="18"/>
<text text-anchor="middle" x="88" y="-98.3" font-family="Times,serif" font-size="14.00">0B</text>
</g>
<!-- r8_1B&#45;&gt;r9_0B -->
<g id="edge14" class="edge">
<title>r8_1B&#45;&gt;r9_0B</title>
<path fill="none" stroke="black" d="M111.49,-164.08C107.72,-154.26 102.87,-141.67 98.57,-130.47"/>
<polygon fill="black" stroke="black" points="101.9,-129.38 95.04,-121.3 95.36,-131.89 101.9,-129.38"/>
</g>
<!-- r9_1B -->
<g id="node16" class="node">
<title>r9_1B</title>
<ellipse fill="none" stroke="black" cx="149" cy="-102" rx="27" ry="18"/>
<text text-anchor="middle" x="149" y="-98.3" font-family="Times,serif" font-size="14.00">1B</text>
</g>
<!-- r8_1B&#45;&gt;r9_1B -->
<g id="edge15" class="edge">
<title>r8_1B&#45;&gt;r9_1B</title>
<path fill="none" stroke="black" d="M124.73,-164.08C128.63,-154.26 133.63,-141.67 138.08,-130.47"/>
<polygon fill="black" stroke="black" points="141.29,-131.88 141.73,-121.3 134.78,-129.3 141.29,-131.88"/>
</g>
<!-- r9_bot -->
<g id="node17" class="node">
<title>r9_bot</title>
<ellipse fill="none" stroke="black" cx="244" cy="-102" rx="27" ry="18"/>
<ellipse fill="none" stroke="black" cx="244" cy="-102" rx="31" ry="22"/>
<text text-anchor="middle" x="244" y="-98.3" font-family="Times,serif" font-size="14.00">⊥</text>
</g>
<!-- r8_bot&#45;&gt;r9_bot -->
<g id="edge16" class="edge">
<title>r8_bot&#45;&gt;r9_bot</title>
<path fill="none" stroke="black" d="M221.14,-160.51C224.36,-152.42 228.12,-142.95 231.66,-134.06"/>
<polygon fill="black" stroke="black" points="234.8,-135.62 235.24,-125.03 228.3,-133.03 234.8,-135.62"/>
</g>
<!-- r10_0Bx -->
<g id="node19" class="node">
<title>r10_0Bx</title>
<ellipse fill="none" stroke="black" cx="27" cy="-22" rx="27" ry="18"/>
<text text-anchor="middle" x="27" y="-18.3" font-family="Times,serif" font-size="14.00">0B</text>
</g>
<!-- r9_1A&#45;&gt;r10_0Bx -->
<g id="edge17" class="edge">
<title>r9_1A&#45;&gt;r10_0Bx</title>
<path fill="none" stroke="black" d="M27,-83.69C27,-74.3 27,-62.45 27,-51.71"/>
<polygon fill="black" stroke="black" points="30.5,-51.78 27,-41.78 23.5,-51.78 30.5,-51.78"/>
</g>
<!-- r10_1A -->
<g id="node18" class="node">
<title>r10_1A</title>
<ellipse fill="none" stroke="black" cx="88" cy="-22" rx="27" ry="18"/>
<text text-anchor="middle" x="88" y="-18.3" font-family="Times,serif" font-size="14.00">1A</text>
</g>
<!-- r9_0B&#45;&gt;r10_1A -->
<g id="edge18" class="edge">
<title>r9_0B&#45;&gt;r10_1A</title>
<path fill="none" stroke="black" d="M88,-83.69C88,-74.3 88,-62.45 88,-51.71"/>
<polygon fill="black" stroke="black" points="91.5,-51.78 88,-41.78 84.5,-51.78 91.5,-51.78"/>
</g>
<!-- r10_0By -->
<g id="node20" class="node">
<title>r10_0By</title>
<ellipse fill="none" stroke="black" cx="149" cy="-22" rx="27" ry="18"/>
<text text-anchor="middle" x="149" y="-18.3" font-family="Times,serif" font-size="14.00">0B</text>
</g>
<!-- r9_1B&#45;&gt;r10_0By -->
<g id="edge19" class="edge">
<title>r9_1B&#45;&gt;r10_0By</title>
<path fill="none" stroke="black" d="M149,-83.69C149,-74.3 149,-62.45 149,-51.71"/>
<polygon fill="black" stroke="black" points="152.5,-51.78 149,-41.78 145.5,-51.78 152.5,-51.78"/>
</g>
<!-- r10_1B -->
<g id="node21" class="node">
<title>r10_1B</title>
<ellipse fill="none" stroke="black" cx="210" cy="-22" rx="27" ry="18"/>
<text text-anchor="middle" x="210" y="-18.3" font-family="Times,serif" font-size="14.00">1B</text>
</g>
<!-- r9_1B&#45;&gt;r10_1B -->
<g id="edge20" class="edge">
<title>r9_1B&#45;&gt;r10_1B</title>
<path fill="none" stroke="black" d="M161.05,-85.59C169.57,-74.69 181.17,-59.86 190.94,-47.37"/>
<polygon fill="black" stroke="black" points="193.64,-49.6 197.04,-39.57 188.12,-45.29 193.64,-49.6"/>
</g>
<!-- r10_bot -->
<g id="node22" class="node">
<title>r10_bot</title>
<ellipse fill="none" stroke="black" cx="275" cy="-22" rx="27" ry="18"/>
<ellipse fill="none" stroke="black" cx="275" cy="-22" rx="31" ry="22"/>
<text text-anchor="middle" x="275" y="-18.3" font-family="Times,serif" font-size="14.00">⊥</text>
</g>
<!-- r9_bot&#45;&gt;r10_bot -->
<g id="edge21" class="edge">
<title>r9_bot&#45;&gt;r10_bot</title>
<path fill="none" stroke="black" d="M252.14,-80.51C255.36,-72.42 259.12,-62.95 262.66,-54.06"/>
<polygon fill="black" stroke="black" points="265.8,-55.62 266.24,-45.03 259.3,-53.03 265.8,-55.62"/>
</g>
</g>
</svg>
