<?xml version="1.0" encoding="UTF-8"?>
<svg xmlns="http://www.w3.org/2000/svg" xmlns:xlink="http://www.w3.org/1999/xlink"
     width="288" height="1728" viewBox="0 -1728 288 1728">
<defs>
</defs>
<g>
<rect x="0" y="-1728" width="288" height="1728" fill="black" />
<g>
<rect x="128" y="-1728" width="32" height="32" fill="rgb(255,0,0)" />
</g>
<g>
<rect x="128" y="-1696" width="32" height="32" fill="white" />
<rect x="160" y="-1696" width="32" height="32" fill="rgb(255,128,0)" />
</g>
<g>
<rect x="128" y="-1664" width="32" height="32" fill="rgb(0,0,255)" />
<rect x="160" y="-1664" width="32" height="32" fill="white" />
</g>
<g>
<rect x="128" y="-1632" width="32" height="32" fill="black" />
<rect x="160" y="-1632" width="32" height="32" fill="white" />
<rect x="96" y="-1632" width="32" height="32" fill="rgb(0,0,255)" />
</g>
<g>
<rect x="128" y="-1600" width="32" height="32" fill="rgb(255,128,0)" />
<rect x="160" y="-1600" width="32" height="32" fill="white" />
<rect x="96" y="-1600" width="32" height="32" fill="black" />
</g>
<g>
<rect x="128" y="-1568" width="32" height="32" fill="white" />
<rect x="160" y="-1568" width="32" height="32" fill="white" />
<rect x="96" y="-1568" width="32" height="32" fill="rgb(0,0,255)" />
</g>
<g>
<rect x="128" y="-1536" width="32" height="32" fill="rgb(255,128,0)" />
<rect x="160" y="-1536" width="32" height="32" fill="white" />
<rect x="96" y="-1536" width="32" height="32" fill="black" />
</g>
<g>
<rect x="128" y="-1504" width="32" height="32" fill="white" />
<rect x="160" y="-1504" width="32" height="32" fill="rgb(255,0,0)" />
<rect x="96" y="-1504" width="32" height="32" fill="black" />
</g>
<g>
<rect x="128" y="-1472" width="32" height="32" fill="rgb(0,255,0)" />
<rect x="160" y="-1472" width="32" height="32" fill="black" />
<rect x="96" y="-1472" width="32" height="32" fill="black" />
</g>
<g>
<rect x="128" y="-1440" width="32" height="32" fill="white" />
<rect x="160" y="-1440" width="32" height="32" fill="black" />
<rect x="96" y="-1440" width="32" height="32" fill="rgb(255,0,0)" />
</g>
<g>
<rect x="128" y="-1408" width="32" height="32" fill="rgb(255,128,0)" />
<rect x="160" y="-1408" width="32" height="32" fill="black" />
<rect x="96" y="-1408" width="32" height="32" fill="white" />
</g>
<g>
<rect x="128" y="-1376" width="32" height="32" fill="white" />
<rect x="160" y="-1376" width="32" height="32" fill="rgb(255,0,0)" />
<rect x="96" y="-1376" width="32" height="32" fill="white" />
</g>
<g>
<rect x="128" y="-1344" width="32" height="32" fill="white" />
<rect x="160" y="-1344" width="32" height="32" fill="white" />
<rect x="96" y="-1344" width="32" height="32" fill="white" />
<rect x="192" y="-1344" width="32" height="32" fill="rgb(255,128,0)" />
</g>
<g>
<rect x="128" y="-1312" width="32" height="32" fill="white" />
<rect x="160" y="-1312" width="32" height="32" fill="rgb(0,0,255)" />
<rect x="96" y="-1312" width="32" height="32" fill="white" />
<rect x="192" y="-1312" width="32" height="32" fill="white" />
</g>
<g>
<rect x="128" y="-1280" width="32" height="32" fill="rgb(0,0,255)" />
<rect x="160" y="-1280" width="32" height="32" fill="black" />
<rect x="96" y="-1280" width="32" height="32" fill="white" />
<rect x="192" y="-1280" width="32" height="32" fill="white" />
</g>
<g>
<rect x="128" y="-1248" width="32" height="32" fill="black" />
<rect x="160" y="-1248" width="32" height="32" fill="black" />
<rect x="96" y="-1248" width="32" height="32" fill="rgb(0,0,255)" />
<rect x="192" y="-1248" width="32" height="32" fill="white" />
</g>
<g>
<rect x="128" y="-1216" width="32" height="32" fill="black" />
<rect x="160" y="-1216" width="32" height="32" fill="black" />
<rect x="96" y="-1216" width="32" height="32" fill="black" />
<rect x="192" y="-1216" width="32" height="32" fill="white" />
<rect x="64" y="-1216" width="32" height="32" fill="rgb(0,0,255)" />
</g>
<g>
<rect x="128" y="-1184" width="32" height="32" fill="black" />
<rect x="160" y="-1184" width="32" height="32" fill="black" />
<rect x="96" y="-1184" width="32" height="32" fill="rgb(255,128,0)" />
<rect x="192" y="-1184" width="32" height="32" fill="white" />
<rect x="64" y="-1184" width="32" height="32" fill="black" />
</g>
<g>
<rect x="128" y="-1152" width="32" height="32" fill="black" />
<rect x="160" y="-1152" width="32" height="32" fill="black" />
<rect x="96" y="-1152" width="32" height="32" fill="white" />
<rect x="192" y="-1152" width="32" height="32" fill="white" />
<rect x="64" y="-1152" width="32" height="32" fill="rgb(0,0,255)" />
</g>
<g>
<rect x="128" y="-1120" width="32" height="32" fill="black" />
<rect x="160" y="-1120" width="32" height="32" fill="black" />
<rect x="96" y="-1120" width="32" height="32" fill="rgb(255,128,0)" />
<rect x="192" y="-1120" width="32" height="32" fill="white" />
<rect x="64" y="-1120" width="32" height="32" fill="black" />
</g>
<g>
<rect x="128" y="-1088" width="32" height="32" fill="rgb(255,0,0)" />
<rect x="160" y="-1088" width="32" height="32" fill="black" />
<rect x="96" y="-1088" width="32" height="32" fill="white" />
<rect x="192" y="-1088" width="32" height="32" fill="white" />
<rect x="64" y="-1088" width="32" height="32" fill="black" />
</g>
<g>
<rect x="128" y="-1056" width="32" height="32" fill="white" />
<rect x="160" y="-1056" width="32" height="32" fill="rgb(255,128,0)" />
<rect x="96" y="-1056" width="32" height="32" fill="white" />
<rect x="192" y="-1056" width="32" height="32" fill="white" />
<rect x="64" y="-1056" width="32" height="32" fill="black" />
</g>
<g>
<rect x="128" y="-1024" width="32" height="32" fill="rgb(0,0,255)" />
<rect x="160" y="-1024" width="32" height="32" fill="white" />
<rect x="96" y="-1024" width="32" height="32" fill="white" />
<rect x="192" y="-1024" width="32" height="32" fill="white" />
<rect x="64" y="-1024" width="32" height="32" fill="black" />
</g>
<g>
<rect x="128" y="-992" width="32" height="32" fill="black" />
<rect x="160" y="-992" width="32" height="32" fill="white" />
<rect x="96" y="-992" width="32" height="32" fill="rgb(0,0,255)" />
<rect x="192" y="-992" width="32" height="32" fill="white" />
<rect x="64" y="-992" width="32" height="32" fill="black" />
</g>
<g>
<rect x="128" y="-960" width="32" height="32" fill="black" />
<rect x="160" y="-960" width="32" height="32" fill="white" />
<rect x="96" y="-960" width="32" height="32" fill="black" />
<rect x="192" y="-960" width="32" height="32" fill="white" />
<rect x="64" y="-960" width="32" height="32" fill="rgb(0,0,255)" />
</g>
<g>
<rect x="128" y="-928" width="32" height="32" fill="black" />
<rect x="160" y="-928" width="32" height="32" fill="white" />
<rect x="96" y="-928" width="32" height="32" fill="rgb(255,128,0)" />
<rect x="192" y="-928" width="32" height="32" fill="white" />
<rect x="64" y="-928" width="32" height="32" fill="black" />
</g>
<g>
<rect x="128" y="-896" width="32" height="32" fill="black" />
<rect x="160" y="-896" width="32" height="32" fill="white" />
<rect x="96" y="-896" width="32" height="32" fill="white" />
<rect x="192" y="-896" width="32" height="32" fill="white" />
<rect x="64" y="-896" width="32" height="32" fill="rgb(0,0,255)" />
</g>
<g>
<rect x="128" y="-864" width="32" height="32" fill="black" />
<rect x="160" y="-864" width="32" height="32" fill="white" />
<rect x="96" y="-864" width="32" height="32" fill="rgb(255,128,0)" />
<rect x="192" y="-864" width="32" height="32" fill="white" />
<rect x="64" y="-864" width="32" height="32" fill="black" />
</g>
<g>
<rect x="128" y="-832" width="32" height="32" fill="rgb(255,0,0)" />
<rect x="160" y="-832" width="32" height="32" fill="white" />
<rect x="96" y="-832" width="32" height="32" fill="white" />
<rect x="192" y="-832" width="32" height="32" fill="white" />
<rect x="64" y="-832" width="32" height="32" fill="black" />
</g>
<g>
<rect x="128" y="-800" width="32" height="32" fill="white" />
<rect x="160" y="-800" width="32" height="32" fill="rgb(255,128,0)" />
<rect x="96" y="-800" width="32" height="32" fill="white" />
<rect x="192" y="-800" width="32" height="32" fill="white" />
<rect x="64" y="-800" width="32" height="32" fill="black" />
</g>
<g>
<rect x="128" y="-768" width="32" height="32" fill="white" />
<rect x="160" y="-768" width="32" height="32" fill="white" />
<rect x="96" y="-768" width="32" height="32" fill="white" />
<rect x="192" y="-768" width="32" height="32" fill="rgb(255,0,0)" />
<rect x="64" y="-768" width="32" height="32" fill="black" />
</g>
<g>
<rect x="128" y="-736" width="32" height="32" fill="white" />
<rect x="160" y="-736" width="32" height="32" fill="rgb(0,255,0)" />
<rect x="96" y="-736" width="32" height="32" fill="white" />
<rect x="192" y="-736" width="32" height="32" fill="black" />
<rect x="64" y="-736" width="32" height="32" fill="black" />
</g>
<g>
<rect x="128" y="-704" width="32" height="32" fill="rgb(255,0,0)" />
<rect x="160" y="-704" width="32" height="32" fill="white" />
<rect x="96" y="-704" width="32" height="32" fill="white" />
<rect x="192" y="-704" width="32" height="32" fill="black" />
<rect x="64" y="-704" width="32" height="32" fill="black" />
</g>
<g>
<rect x="128" y="-672" width="32" height="32" fill="black" />
<rect x="160" y="-672" width="32" height="32" fill="white" />
<rect x="96" y="-672" width="32" height="32" fill="rgb(0,255,0)" />
<rect x="192" y="-672" width="32" height="32" fill="black" />
<rect x="64" y="-672" width="32" height="32" fill="black" />
</g>
<g>
<rect x="128" y="-640" width="32" height="32" fill="black" />
<rect x="160" y="-640" width="32" height="32" fill="white" />
<rect x="96" y="-640" width="32" height="32" fill="white" />
<rect x="192" y="-640" width="32" height="32" fill="black" />
<rect x="64" y="-640" width="32" height="32" fill="rgb(255,0,0)" />
</g>
<g>
<rect x="128" y="-608" width="32" height="32" fill="black" />
<rect x="160" y="-608" width="32" height="32" fill="white" />
<rect x="96" y="-608" width="32" height="32" fill="rgb(255,128,0)" />
<rect x="192" y="-608" width="32" height="32" fill="black" />
<rect x="64" y="-608" width="32" height="32" fill="white" />
</g>
<g>
<rect x="128" y="-576" width="32" height="32" fill="rgb(255,0,0)" />
<rect x="160" y="-576" width="32" height="32" fill="white" />
<rect x="96" y="-576" width="32" height="32" fill="white" />
<rect x="192" y="-576" width="32" height="32" fill="black" />
<rect x="64" y="-576" width="32" height="32" fill="white" />
</g>
<g>
<rect x="128" y="-544" width="32" height="32" fill="white" />
<rect x="160" y="-544" width="32" height="32" fill="rgb(255,128,0)" />
<rect x="96" y="-544" width="32" height="32" fill="white" />
<rect x="192" y="-544" width="32" height="32" fill="black" />
<rect x="64" y="-544" width="32" height="32" fill="white" />
</g>
<g>
<rect x="128" y="-512" width="32" height="32" fill="white" />
<rect x="160" y="-512" width="32" height="32" fill="white" />
<rect x="96" y="-512" width="32" height="32" fill="white" />
<rect x="192" y="-512" width="32" height="32" fill="rgb(255,0,0)" />
<rect x="64" y="-512" width="32" height="32" fill="white" />
</g>
<g>
<rect x="128" y="-480" width="32" height="32" fill="white" />
<rect x="160" y="-480" width="32" height="32" fill="white" />
<rect x="96" y="-480" width="32" height="32" fill="white" />
<rect x="192" y="-480" width="32" height="32" fill="white" />
<rect x="64" y="-480" width="32" height="32" fill="white" />
<rect x="224" y="-480" width="32" height="32" fill="rgb(255,128,0)" />
</g>
<g>
<rect x="128" y="-448" width="32" height="32" fill="white" />
<rect x="160" y="-448" width="32" height="32" fill="white" />
<rect x="96" y="-448" width="32" height="32" fill="white" />
<rect x="192" y="-448" width="32" height="32" fill="rgb(0,0,255)" />
<rect x="64" y="-448" width="32" height="32" fill="white" />
<rect x="224" y="-448" width="32" height="32" fill="white" />
</g>
<g>
<rect x="128" y="-416" width="32" height="32" fill="white" />
<rect x="160" y="-416" width="32" height="32" fill="rgb(0,0,255)" />
<rect x="96" y="-416" width="32" height="32" fill="white" />
<rect x="192" y="-416" width="32" height="32" fill="black" />
<rect x="64" y="-416" width="32" height="32" fill="white" />
<rect x="224" y="-416" width="32" height="32" fill="white" />
</g>
<g>
<rect x="128" y="-384" width="32" height="32" fill="rgb(0,0,255)" />
<rect x="160" y="-384" width="32" height="32" fill="black" />
<rect x="96" y="-384" width="32" height="32" fill="white" />
<rect x="192" y="-384" width="32" height="32" fill="black" />
<rect x="64" y="-384" width="32" height="32" fill="white" />
<rect x="224" y="-384" width="32" height="32" fill="white" />
</g>
<g>
<rect x="128" y="-352" width="32" height="32" fill="black" />
<rect x="160" y="-352" width="32" height="32" fill="black" />
<rect x="96" y="-352" width="32" height="32" fill="rgb(0,0,255)" />
<rect x="192" y="-352" width="32" height="32" fill="black" />
<rect x="64" y="-352" width="32" height="32" fill="white" />
<rect x="224" y="-352" width="32" height="32" fill="white" />
</g>
<g>
<rect x="128" y="-320" width="32" height="32" fill="black" />
<rect x="160" y="-320" width="32" height="32" fill="black" />
<rect x="96" y="-320" width="32" height="32" fill="black" />
<rect x="192" y="-320" width="32" height="32" fill="black" />
<rect x="64" y="-320" width="32" height="32" fill="rgb(0,0,255)" />
<rect x="224" y="-320" width="32" height="32" fill="white" />
</g>
<g>
<rect x="128" y="-288" width="32" height="32" fill="black" />
<rect x="160" y="-288" width="32" height="32" fill="black" />
<rect x="96" y="-288" width="32" height="32" fill="black" />
<rect x="192" y="-288" width="32" height="32" fill="black" />
<rect x="64" y="-288" width="32" height="32" fill="black" />
<rect x="224" y="-288" width="32" height="32" fill="white" />
<rect x="32" y="-288" width="32" height="32" fill="rgb(0,0,255)" />
</g>
<g>
<rect x="128" y="-256" width="32" height="32" fill="black" />
<rect x="160" y="-256" width="32" height="32" fill="black" />
<rect x="96" y="-256" width="32" height="32" fill="black" />
<rect x="192" y="-256" width="32" height="32" fill="black" />
<rect x="64" y="-256" width="32" height="32" fill="rgb(255,128,0)" />
<rect x="224" y="-256" width="32" height="32" fill="white" />
<rect x="32" y="-256" width="32" height="32" fill="black" />
</g>
<g>
<rect x="128" y="-224" width="32" height="32" fill="black" />
<rect x="160" y="-224" width="32" height="32" fill="black" />
<rect x="96" y="-224" width="32" height="32" fill="black" />
<rect x="192" y="-224" width="32" height="32" fill="black" />
<rect x="64" y="-224" width="32" height="32" fill="white" />
<rect x="224" y="-224" width="32" height="32" fill="white" />
<rect x="32" y="-224" width="32" height="32" fill="rgb(0,0,255)" />
</g>
<g>
<rect x="128" y="-192" width="32" height="32" fill="black" />
<rect x="160" y="-192" width="32" height="32" fill="black" />
<rect x="96" y="-192" width="32" height="32" fill="black" />
<rect x="192" y="-192" width="32" height="32" fill="black" />
<rect x="64" y="-192" width="32" height="32" fill="rgb(255,128,0)" />
<rect x="224" y="-192" width="32" height="32" fill="white" />
<rect x="32" y="-192" width="32" height="32" fill="black" />
</g>
<g>
<rect x="128" y="-160" width="32" height="32" fill="black" />
<rect x="160" y="-160" width="32" height="32" fill="black" />
<rect x="96" y="-160" width="32" height="32" fill="rgb(255,0,0)" />
<rect x="192" y="-160" width="32" height="32" fill="black" />
<rect x="64" y="-160" width="32" height="32" fill="white" />
<rect x="224" y="-160" width="32" height="32" fill="white" />
<rect x="32" y="-160" width="32" height="32" fill="black" />
</g>
<g>
<rect x="128" y="-128" width="32" height="32" fill="rgb(255,128,0)" />
<rect x="160" y="-128" width="32" height="32" fill="black" />
<rect x="96" y="-128" width="32" height="32" fill="white" />
<rect x="192" y="-128" width="32" height="32" fill="black" />
<rect x="64" y="-128" width="32" height="32" fill="white" />
<rect x="224" y="-128" width="32" height="32" fill="white" />
<rect x="32" y="-128" width="32" height="32" fill="black" />
</g>
<g>
<rect x="128" y="-96" width="32" height="32" fill="white" />
<rect x="160" y="-96" width="32" height="32" fill="black" />
<rect x="96" y="-96" width="32" height="32" fill="rgb(0,0,255)" />
<rect x="192" y="-96" width="32" height="32" fill="black" />
<rect x="64" y="-96" width="32" height="32" fill="white" />
<rect x="224" y="-96" width="32" height="32" fill="white" />
<rect x="32" y="-96" width="32" height="32" fill="black" />
</g>
<g>
<rect x="128" y="-64" width="32" height="32" fill="white" />
<rect x="160" y="-64" width="32" height="32" fill="black" />
<rect x="96" y="-64" width="32" height="32" fill="black" />
<rect x="192" y="-64" width="32" height="32" fill="black" />
<rect x="64" y="-64" width="32" height="32" fill="rgb(0,0,255)" />
<rect x="224" y="-64" width="32" height="32" fill="white" />
<rect x="32" y="-64" width="32" height="32" fill="black" />
</g>
<g>
<rect x="128" y="-32" width="32" height="32" fill="white" />
<rect x="160" y="-32" width="32" height="32" fill="black" />
<rect x="96" y="-32" width="32" height="32" fill="black" />
<rect x="192" y="-32" width="32" height="32" fill="black" />
<rect x="64" y="-32" width="32" height="32" fill="black" />
<rect x="224" y="-32" width="32" height="32" fill="white" />
<rect x="32" y="-32" width="32" height="32" fill="rgb(0,0,255)" />
</g>
</g>
</svg>