<?xml version="1.0" encoding="UTF-8"?>
<svg xmlns="http://www.w3.org/2000/svg" xmlns:xlink="http://www.w3.org/1999/xlink"
     width="640" height="992" viewBox="0 -992 640 992">
<defs>
</defs>
<g>
<rect x="0" y="-992" width="640" height="992" fill="black" />
<g>
<rect x="320" y="-992" width="32" height="32" fill="rgb(255,0,0)" />
</g>
<g>
<rect x="320" y="-960" width="32" height="32" fill="white" />
<rect x="352" y="-960" width="32" height="32" fill="rgb(255,128,0)" />
</g>
<g>
<rect x="320" y="-928" width="32" height="32" fill="white" />
<rect x="352" y="-928" width="32" height="32" fill="black" />
<rect x="384" y="-928" width="32" height="32" fill="rgb(0,0,255)" />
</g>
<g>
<rect x="320" y="-896" width="32" height="32" fill="white" />
<rect x="352" y="-896" width="32" height="32" fill="rgb(0,255,0)" />
<rect x="384" y="-896" width="32" height="32" fill="white" />
</g>
<g>
<rect x="320" y="-864" width="32" height="32" fill="rgb(255,128,0)" />
<rect x="352" y="-864" width="32" height="32" fill="white" />
<rect x="384" y="-864" width="32" height="32" fill="white" />
</g>
<g>
<rect x="320" y="-832" width="32" height="32" fill="black" />
<rect x="352" y="-832" width="32" height="32" fill="white" />
<rect x="384" y="-832" width="32" height="32" fill="white" />
<rect x="288" y="-832" width="32" height="32" fill="rgb(255,0,255)" />
</g>
<g>
<rect x="320" y="-800" width="32" height="32" fill="black" />
<rect x="352" y="-800" width="32" height="32" fill="white" />
<rect x="384" y="-800" width="32" height="32" fill="white" />
<rect x="288" y="-800" width="32" height="32" fill="white" />
<rect x="256" y="-800" width="32" height="32" fill="rgb(0,0,255)" />
</g>
<g>
<rect x="320" y="-768" width="32" height="32" fill="black" />
<rect x="352" y="-768" width="32" height="32" fill="white" />
<rect x="384" y="-768" width="32" height="32" fill="white" />
<rect x="288" y="-768" width="32" height="32" fill="white" />
<rect x="256" y="-768" width="32" height="32" fill="white" />
<rect x="224" y="-768" width="32" height="32" fill="rgb(0,255,0)" />
</g>
<g>
<rect x="320" y="-736" width="32" height="32" fill="black" />
<rect x="352" y="-736" width="32" height="32" fill="white" />
<rect x="384" y="-736" width="32" height="32" fill="white" />
<rect x="288" y="-736" width="32" height="32" fill="white" />
<rect x="256" y="-736" width="32" height="32" fill="white" />
<rect x="224" y="-736" width="32" height="32" fill="white" />
<rect x="192" y="-736" width="32" height="32" fill="rgb(255,128,0)" />
</g>
<g>
<rect x="320" y="-704" width="32" height="32" fill="black" />
<rect x="352" y="-704" width="32" height="32" fill="white" />
<rect x="384" y="-704" width="32" height="32" fill="white" />
<rect x="288" y="-704" width="32" height="32" fill="white" />
<rect x="256" y="-704" width="32" height="32" fill="white" />
<rect x="224" y="-704" width="32" height="32" fill="rgb(0,0,255)" />
<rect x="192" y="-704" width="32" height="32" fill="black" />
</g>
<g>
<rect x="320" y="-672" width="32" height="32" fill="black" />
<rect x="352" y="-672" width="32" height="32" fill="white" />
<rect x="384" y="-672" width="32" height="32" fill="white" />
<rect x="288" y="-672" width="32" height="32" fill="white" />
<rect x="256" y="-672" width="32" height="32" fill="white" />
<rect x="224" y="-672" width="32" height="32" fill="black" />
<rect x="192" y="-672" width="32" height="32" fill="rgb(255,0,0)" />
</g>
<g>
<rect x="320" y="-640" width="32" height="32" fill="black" />
<rect x="352" y="-640" width="32" height="32" fill="white" />
<rect x="384" y="-640" width="32" height="32" fill="white" />
<rect x="288" y="-640" width="32" height="32" fill="white" />
<rect x="256" y="-640" width="32" height="32" fill="white" />
<rect x="224" y="-640" width="32" height="32" fill="rgb(255,128,0)" />
<rect x="192" y="-640" width="32" height="32" fill="white" />
</g>
<g>
<rect x="320" y="-608" width="32" height="32" fill="black" />
<rect x="352" y="-608" width="32" height="32" fill="white" />
<rect x="384" y="-608" width="32" height="32" fill="white" />
<rect x="288" y="-608" width="32" height="32" fill="white" />
<rect x="256" y="-608" width="32" height="32" fill="rgb(0,0,255)" />
<rect x="224" y="-608" width="32" height="32" fill="black" />
<rect x="192" y="-608" width="32" height="32" fill="white" />
</g>
<g>
<rect x="320" y="-576" width="32" height="32" fill="black" />
<rect x="352" y="-576" width="32" height="32" fill="white" />
<rect x="384" y="-576" width="32" height="32" fill="white" />
<rect x="288" y="-576" width="32" height="32" fill="white" />
<rect x="256" y="-576" width="32" height="32" fill="black" />
<rect x="224" y="-576" width="32" height="32" fill="rgb(255,0,0)" />
<rect x="192" y="-576" width="32" height="32" fill="white" />
</g>
<g>
<rect x="320" y="-544" width="32" height="32" fill="black" />
<rect x="352" y="-544" width="32" height="32" fill="white" />
<rect x="384" y="-544" width="32" height="32" fill="white" />
<rect x="288" y="-544" width="32" height="32" fill="white" />
<rect x="256" y="-544" width="32" height="32" fill="rgb(255,128,0)" />
<rect x="224" y="-544" width="32" height="32" fill="white" />
<rect x="192" y="-544" width="32" height="32" fill="white" />
</g>
<g>
<rect x="320" y="-512" width="32" height="32" fill="black" />
<rect x="352" y="-512" width="32" height="32" fill="white" />
<rect x="384" y="-512" width="32" height="32" fill="white" />
<rect x="288" y="-512" width="32" height="32" fill="rgb(0,0,255)" />
<rect x="256" y="-512" width="32" height="32" fill="black" />
<rect x="224" y="-512" width="32" height="32" fill="white" />
<rect x="192" y="-512" width="32" height="32" fill="white" />
</g>
<g>
<rect x="320" y="-480" width="32" height="32" fill="black" />
<rect x="352" y="-480" width="32" height="32" fill="white" />
<rect x="384" y="-480" width="32" height="32" fill="white" />
<rect x="288" y="-480" width="32" height="32" fill="black" />
<rect x="256" y="-480" width="32" height="32" fill="rgb(255,0,0)" />
<rect x="224" y="-480" width="32" height="32" fill="white" />
<rect x="192" y="-480" width="32" height="32" fill="white" />
</g>
<g>
<rect x="320" y="-448" width="32" height="32" fill="black" />
<rect x="352" y="-448" width="32" height="32" fill="white" />
<rect x="384" y="-448" width="32" height="32" fill="white" />
<rect x="288" y="-448" width="32" height="32" fill="rgb(255,128,0)" />
<rect x="256" y="-448" width="32" height="32" fill="white" />
<rect x="224" y="-448" width="32" height="32" fill="white" />
<rect x="192" y="-448" width="32" height="32" fill="white" />
</g>
<g>
<rect x="320" y="-416" width="32" height="32" fill="rgb(0,0,255)" />
<rect x="352" y="-416" width="32" height="32" fill="white" />
<rect x="384" y="-416" width="32" height="32" fill="white" />
<rect x="288" y="-416" width="32" height="32" fill="black" />
<rect x="256" y="-416" width="32" height="32" fill="white" />
<rect x="224" y="-416" width="32" height="32" fill="white" />
<rect x="192" y="-416" width="32" height="32" fill="white" />
</g>
<g>
<rect x="320" y="-384" width="32" height="32" fill="white" />
<rect x="352" y="-384" width="32" height="32" fill="white" />
<rect x="384" y="-384" width="32" height="32" fill="white" />
<rect x="288" y="-384" width="32" height="32" fill="rgb(0,255,0)" />
<rect x="256" y="-384" width="32" height="32" fill="white" />
<rect x="224" y="-384" width="32" height="32" fill="white" />
<rect x="192" y="-384" width="32" height="32" fill="white" />
</g>
<g>
<rect x="320" y="-352" width="32" height="32" fill="white" />
<rect x="352" y="-352" width="32" height="32" fill="white" />
<rect x="384" y="-352" width="32" height="32" fill="white" />
<rect x="288" y="-352" width="32" height="32" fill="white" />
<rect x="256" y="-352" width="32" height="32" fill="rgb(255,128,0)" />
<rect x="224" y="-352" width="32" height="32" fill="white" />
<rect x="192" y="-352" width="32" height="32" fill="white" />
</g>
<g>
<rect x="320" y="-320" width="32" height="32" fill="white" />
<rect x="352" y="-320" width="32" height="32" fill="white" />
<rect x="384" y="-320" width="32" height="32" fill="white" />
<rect x="288" y="-320" width="32" height="32" fill="white" />
<rect x="256" y="-320" width="32" height="32" fill="black" />
<rect x="224" y="-320" width="32" height="32" fill="rgb(255,0,255)" />
<rect x="192" y="-320" width="32" height="32" fill="white" />
</g>
<g>
<rect x="320" y="-288" width="32" height="32" fill="white" />
<rect x="352" y="-288" width="32" height="32" fill="white" />
<rect x="384" y="-288" width="32" height="32" fill="white" />
<rect x="288" y="-288" width="32" height="32" fill="white" />
<rect x="256" y="-288" width="32" height="32" fill="rgb(0,0,255)" />
<rect x="224" y="-288" width="32" height="32" fill="white" />
<rect x="192" y="-288" width="32" height="32" fill="white" />
</g>
<g>
<rect x="320" y="-256" width="32" height="32" fill="white" />
<rect x="352" y="-256" width="32" height="32" fill="white" />
<rect x="384" y="-256" width="32" height="32" fill="white" />
<rect x="288" y="-256" width="32" height="32" fill="white" />
<rect x="256" y="-256" width="32" height="32" fill="white" />
<rect x="224" y="-256" width="32" height="32" fill="rgb(0,255,0)" />
<rect x="192" y="-256" width="32" height="32" fill="white" />
</g>
<g>
<rect x="320" y="-224" width="32" height="32" fill="white" />
<rect x="352" y="-224" width="32" height="32" fill="white" />
<rect x="384" y="-224" width="32" height="32" fill="white" />
<rect x="288" y="-224" width="32" height="32" fill="white" />
<rect x="256" y="-224" width="32" height="32" fill="rgb(255,128,0)" />
<rect x="224" y="-224" width="32" height="32" fill="white" />
<rect x="192" y="-224" width="32" height="32" fill="white" />
</g>
<g>
<rect x="320" y="-192" width="32" height="32" fill="white" />
<rect x="352" y="-192" width="32" height="32" fill="white" />
<rect x="384" y="-192" width="32" height="32" fill="white" />
<rect x="288" y="-192" width="32" height="32" fill="white" />
<rect x="256" y="-192" width="32" height="32" fill="black" />
<rect x="224" y="-192" width="32" height="32" fill="rgb(255,0,255)" />
<rect x="192" y="-192" width="32" height="32" fill="white" />
</g>
<g>
<rect x="320" y="-160" width="32" height="32" fill="white" />
<rect x="352" y="-160" width="32" height="32" fill="white" />
<rect x="384" y="-160" width="32" height="32" fill="white" />
<rect x="288" y="-160" width="32" height="32" fill="white" />
<rect x="256" y="-160" width="32" height="32" fill="rgb(0,0,255)" />
<rect x="224" y="-160" width="32" height="32" fill="white" />
<rect x="192" y="-160" width="32" height="32" fill="white" />
</g>
<g>
<rect x="320" y="-128" width="32" height="32" fill="white" />
<rect x="352" y="-128" width="32" height="32" fill="white" />
<rect x="384" y="-128" width="32" height="32" fill="white" />
<rect x="288" y="-128" width="32" height="32" fill="white" />
<rect x="256" y="-128" width="32" height="32" fill="white" />
<rect x="224" y="-128" width="32" height="32" fill="rgb(0,255,0)" />
<rect x="192" y="-128" width="32" height="32" fill="white" />
</g>
<g>
<rect x="320" y="-96" width="32" height="32" fill="white" />
<rect x="352" y="-96" width="32" height="32" fill="white" />
<rect x="384" y="-96" width="32" height="32" fill="white" />
<rect x="288" y="-96" width="32" height="32" fill="white" />
<rect x="256" y="-96" width="32" height="32" fill="rgb(255,128,0)" />
<rect x="224" y="-96" width="32" height="32" fill="white" />
<rect x="192" y="-96" width="32" height="32" fill="white" />
</g>
<g>
<rect x="320" y="-64" width="32" height="32" fill="white" />
<rect x="352" y="-64" width="32" height="32" fill="white" />
<rect x="384" y="-64" width="32" height="32" fill="white" />
<rect x="288" y="-64" width="32" height="32" fill="white" />
<rect x="256" y="-64" width="32" height="32" fill="black" />
<rect x="224" y="-64" width="32" height="32" fill="rgb(255,0,255)" />
<rect x="192" y="-64" width="32" height="32" fill="white" />
</g>
<g>
<rect x="320" y="-32" width="32" height="32" fill="white" />
<rect x="352" y="-32" width="32" height="32" fill="white" />
<rect x="384" y="-32" width="32" height="32" fill="white" />
<rect x="288" y="-32" width="32" height="32" fill="white" />
<rect x="256" y="-32" width="32" height="32" fill="rgb(0,0,255)" />
<rect x="224" y="-32" width="32" height="32" fill="white" />
<rect x="192" y="-32" width="32" height="32" fill="white" />
</g>
</g>
</svg>