<?xml version="1.0" encoding="UTF-8"?>
<svg xmlns="http://www.w3.org/2000/svg" xmlns:xlink="http://www.w3.org/1999/xlink"
     width="384" height="608" viewBox="0 -608 384 608">
<defs>
</defs>
<g>
<rect x="0" y="-608" width="384" height="608" fill="black" />
<g>
<rect x="192" y="-608" width="32" height="32" fill="rgb(255,0,0)" />
<rect x="256" y="-608" width="32" height="32" fill="white" />
<rect x="288" y="-608" width="32" height="32" fill="white" />
</g>
<g>
<rect x="192" y="-576" width="32" height="32" fill="white" />
<rect x="256" y="-576" width="32" height="32" fill="white" />
<rect x="288" y="-576" width="32" height="32" fill="white" />
<rect x="224" y="-576" width="32" height="32" fill="rgb(255,128,0)" />
</g>
<g>
<rect x="192" y="-544" width="32" height="32" fill="rgb(0,0,255)" />
<rect x="256" y="-544" width="32" height="32" fill="white" />
<rect x="288" y="-544" width="32" height="32" fill="white" />
<rect x="224" y="-544" width="32" height="32" fill="white" />
</g>
<g>
<rect x="192" y="-512" width="32" height="32" fill="black" />
<rect x="256" y="-512" width="32" height="32" fill="white" />
<rect x="288" y="-512" width="32" height="32" fill="white" />
<rect x="224" y="-512" width="32" height="32" fill="white" />
<rect x="160" y="-512" width="32" height="32" fill="rgb(0,0,255)" />
</g>
<g>
<rect x="192" y="-480" width="32" height="32" fill="rgb(255,128,0)" />
<rect x="256" y="-480" width="32" height="32" fill="white" />
<rect x="288" y="-480" width="32" height="32" fill="white" />
<rect x="224" y="-480" width="32" height="32" fill="white" />
<rect x="160" y="-480" width="32" height="32" fill="black" />
</g>
<g>
<rect x="192" y="-448" width="32" height="32" fill="white" />
<rect x="256" y="-448" width="32" height="32" fill="white" />
<rect x="288" y="-448" width="32" height="32" fill="white" />
<rect x="224" y="-448" width="32" height="32" fill="white" />
<rect x="160" y="-448" width="32" height="32" fill="rgb(0,0,255)" />
</g>
<g>
<rect x="192" y="-416" width="32" height="32" fill="rgb(255,128,0)" />
<rect x="256" y="-416" width="32" height="32" fill="white" />
<rect x="288" y="-416" width="32" height="32" fill="white" />
<rect x="224" y="-416" width="32" height="32" fill="white" />
<rect x="160" y="-416" width="32" height="32" fill="black" />
</g>
<g>
<rect x="192" y="-384" width="32" height="32" fill="white" />
<rect x="256" y="-384" width="32" height="32" fill="white" />
<rect x="288" y="-384" width="32" height="32" fill="white" />
<rect x="224" y="-384" width="32" height="32" fill="rgb(255,0,0)" />
<rect x="160" y="-384" width="32" height="32" fill="black" />
</g>
<g>
<rect x="192" y="-352" width="32" height="32" fill="rgb(0,255,0)" />
<rect x="256" y="-352" width="32" height="32" fill="white" />
<rect x="288" y="-352" width="32" height="32" fill="white" />
<rect x="224" y="-352" width="32" height="32" fill="black" />
<rect x="160" y="-352" width="32" height="32" fill="black" />
</g>
<g>
<rect x="192" y="-320" width="32" height="32" fill="white" />
<rect x="256" y="-320" width="32" height="32" fill="white" />
<rect x="288" y="-320" width="32" height="32" fill="white" />
<rect x="224" y="-320" width="32" height="32" fill="black" />
<rect x="160" y="-320" width="32" height="32" fill="rgb(255,0,0)" />
</g>
<g>
<rect x="192" y="-288" width="32" height="32" fill="rgb(255,128,0)" />
<rect x="256" y="-288" width="32" height="32" fill="white" />
<rect x="288" y="-288" width="32" height="32" fill="white" />
<rect x="224" y="-288" width="32" height="32" fill="black" />
<rect x="160" y="-288" width="32" height="32" fill="white" />
</g>
<g>
<rect x="192" y="-256" width="32" height="32" fill="white" />
<rect x="256" y="-256" width="32" height="32" fill="white" />
<rect x="288" y="-256" width="32" height="32" fill="white" />
<rect x="224" y="-256" width="32" height="32" fill="rgb(255,0,0)" />
<rect x="160" y="-256" width="32" height="32" fill="white" />
</g>
<g>
<rect x="192" y="-224" width="32" height="32" fill="white" />
<rect x="256" y="-224" width="32" height="32" fill="rgb(255,128,0)" />
<rect x="288" y="-224" width="32" height="32" fill="white" />
<rect x="224" y="-224" width="32" height="32" fill="white" />
<rect x="160" y="-224" width="32" height="32" fill="white" />
</g>
<g>
<rect x="192" y="-192" width="32" height="32" fill="white" />
<rect x="256" y="-192" width="32" height="32" fill="white" />
<rect x="288" y="-192" width="32" height="32" fill="rgb(255,0,0)" />
<rect x="224" y="-192" width="32" height="32" fill="white" />
<rect x="160" y="-192" width="32" height="32" fill="white" />
</g>
<g>
<rect x="192" y="-160" width="32" height="32" fill="white" />
<rect x="256" y="-160" width="32" height="32" fill="rgb(0,255,0)" />
<rect x="288" y="-160" width="32" height="32" fill="black" />
<rect x="224" y="-160" width="32" height="32" fill="white" />
<rect x="160" y="-160" width="32" height="32" fill="white" />
</g>
<g>
<rect x="192" y="-128" width="32" height="32" fill="white" />
<rect x="256" y="-128" width="32" height="32" fill="white" />
<rect x="288" y="-128" width="32" height="32" fill="black" />
<rect x="224" y="-128" width="32" height="32" fill="rgb(255,0,0)" />
<rect x="160" y="-128" width="32" height="32" fill="white" />
</g>
<g>
<rect x="192" y="-96" width="32" height="32" fill="rgb(0,255,0)" />
<rect x="256" y="-96" width="32" height="32" fill="white" />
<rect x="288" y="-96" width="32" height="32" fill="black" />
<rect x="224" y="-96" width="32" height="32" fill="black" />
<rect x="160" y="-96" width="32" height="32" fill="white" />
</g>
<g>
<rect x="192" y="-64" width="32" height="32" fill="white" />
<rect x="256" y="-64" width="32" height="32" fill="white" />
<rect x="288" y="-64" width="32" height="32" fill="black" />
<rect x="224" y="-64" width="32" height="32" fill="black" />
<rect x="160" y="-64" width="32" height="32" fill="rgb(255,0,0)" />
</g>
<g>
<rect x="192" y="-32" width="32" height="32" fill="white" />
<rect x="256" y="-32" width="32" height="32" fill="white" />
<rect x="288" y="-32" width="32" height="32" fill="black" />
<rect x="224" y="-32" width="32" height="32" fill="black" />
<rect x="160" y="-32" width="32" height="32" fill="black" />
<rect x="128" y="-32" width="32" height="32" fill="rgb(0,255,0)" />
</g>
</g>
</svg>