<?xml version="1.0" encoding="UTF-8"?>
<svg xmlns="http://www.w3.org/2000/svg" xmlns:xlink="http://www.w3.org/1999/xlink"
     width="960" height="1472" viewBox="0 -1472 960 1472">
<defs>
</defs>
<g>
<rect x="0" y="-1472" width="960" height="1472" fill="black" />
<g>
<rect x="480" y="-1472" width="32" height="32" fill="rgb(255,0,0)" />
</g>
<g>
<rect x="480" y="-1440" width="32" height="32" fill="white" />
<rect x="512" y="-1440" width="32" height="32" fill="rgb(255,128,0)" />
</g>
<g>
<rect x="480" y="-1408" width="32" height="32" fill="rgb(0,0,255)" />
<rect x="512" y="-1408" width="32" height="32" fill="black" />
</g>
<g>
<rect x="480" y="-1376" width="32" height="32" fill="white" />
<rect x="512" y="-1376" width="32" height="32" fill="black" />
<rect x="448" y="-1376" width="32" height="32" fill="rgb(255,0,0)" />
</g>
<g>
<rect x="480" y="-1344" width="32" height="32" fill="rgb(255,128,0)" />
<rect x="512" y="-1344" width="32" height="32" fill="black" />
<rect x="448" y="-1344" width="32" height="32" fill="white" />
</g>
<g>
<rect x="480" y="-1312" width="32" height="32" fill="white" />
<rect x="512" y="-1312" width="32" height="32" fill="rgb(0,0,255)" />
<rect x="448" y="-1312" width="32" height="32" fill="white" />
</g>
<g>
<rect x="480" y="-1280" width="32" height="32" fill="white" />
<rect x="512" y="-1280" width="32" height="32" fill="black" />
<rect x="448" y="-1280" width="32" height="32" fill="white" />
<rect x="544" y="-1280" width="32" height="32" fill="rgb(0,255,0)" />
</g>
<g>
<rect x="480" y="-1248" width="32" height="32" fill="white" />
<rect x="512" y="-1248" width="32" height="32" fill="rgb(255,0,255)" />
<rect x="448" y="-1248" width="32" height="32" fill="white" />
<rect x="544" y="-1248" width="32" height="32" fill="white" />
</g>
<g>
<rect x="480" y="-1216" width="32" height="32" fill="rgb(255,128,0)" />
<rect x="512" y="-1216" width="32" height="32" fill="white" />
<rect x="448" y="-1216" width="32" height="32" fill="white" />
<rect x="544" y="-1216" width="32" height="32" fill="white" />
</g>
<g>
<rect x="480" y="-1184" width="32" height="32" fill="white" />
<rect x="512" y="-1184" width="32" height="32" fill="rgb(0,0,255)" />
<rect x="448" y="-1184" width="32" height="32" fill="white" />
<rect x="544" y="-1184" width="32" height="32" fill="white" />
</g>
<g>
<rect x="480" y="-1152" width="32" height="32" fill="rgb(255,0,0)" />
<rect x="512" y="-1152" width="32" height="32" fill="white" />
<rect x="448" y="-1152" width="32" height="32" fill="white" />
<rect x="544" y="-1152" width="32" height="32" fill="white" />
</g>
<g>
<rect x="480" y="-1120" width="32" height="32" fill="black" />
<rect x="512" y="-1120" width="32" height="32" fill="rgb(255,0,255)" />
<rect x="448" y="-1120" width="32" height="32" fill="white" />
<rect x="544" y="-1120" width="32" height="32" fill="white" />
</g>
<g>
<rect x="480" y="-1088" width="32" height="32" fill="black" />
<rect x="512" y="-1088" width="32" height="32" fill="white" />
<rect x="448" y="-1088" width="32" height="32" fill="white" />
<rect x="544" y="-1088" width="32" height="32" fill="rgb(0,0,255)" />
</g>
<g>
<rect x="480" y="-1056" width="32" height="32" fill="black" />
<rect x="512" y="-1056" width="32" height="32" fill="rgb(255,0,0)" />
<rect x="448" y="-1056" width="32" height="32" fill="white" />
<rect x="544" y="-1056" width="32" height="32" fill="white" />
</g>
<g>
<rect x="480" y="-1024" width="32" height="32" fill="black" />
<rect x="512" y="-1024" width="32" height="32" fill="black" />
<rect x="448" y="-1024" width="32" height="32" fill="white" />
<rect x="544" y="-1024" width="32" height="32" fill="rgb(255,0,255)" />
</g>
<g>
<rect x="480" y="-992" width="32" height="32" fill="black" />
<rect x="512" y="-992" width="32" height="32" fill="black" />
<rect x="448" y="-992" width="32" height="32" fill="white" />
<rect x="544" y="-992" width="32" height="32" fill="white" />
<rect x="576" y="-992" width="32" height="32" fill="rgb(0,0,255)" />
</g>
<g>
<rect x="480" y="-960" width="32" height="32" fill="black" />
<rect x="512" y="-960" width="32" height="32" fill="black" />
<rect x="448" y="-960" width="32" height="32" fill="white" />
<rect x="544" y="-960" width="32" height="32" fill="white" />
<rect x="576" y="-960" width="32" height="32" fill="black" />
<rect x="608" y="-960" width="32" height="32" fill="rgb(0,255,0)" />
</g>
<g>
<rect x="480" y="-928" width="32" height="32" fill="black" />
<rect x="512" y="-928" width="32" height="32" fill="black" />
<rect x="448" y="-928" width="32" height="32" fill="white" />
<rect x="544" y="-928" width="32" height="32" fill="white" />
<rect x="576" y="-928" width="32" height="32" fill="rgb(255,0,255)" />
<rect x="608" y="-928" width="32" height="32" fill="white" />
</g>
<g>
<rect x="480" y="-896" width="32" height="32" fill="black" />
<rect x="512" y="-896" width="32" height="32" fill="black" />
<rect x="448" y="-896" width="32" height="32" fill="white" />
<rect x="544" y="-896" width="32" height="32" fill="rgb(255,128,0)" />
<rect x="576" y="-896" width="32" height="32" fill="white" />
<rect x="608" y="-896" width="32" height="32" fill="white" />
</g>
<g>
<rect x="480" y="-864" width="32" height="32" fill="black" />
<rect x="512" y="-864" width="32" height="32" fill="black" />
<rect x="448" y="-864" width="32" height="32" fill="white" />
<rect x="544" y="-864" width="32" height="32" fill="white" />
<rect x="576" y="-864" width="32" height="32" fill="rgb(0,0,255)" />
<rect x="608" y="-864" width="32" height="32" fill="white" />
</g>
<g>
<rect x="480" y="-832" width="32" height="32" fill="black" />
<rect x="512" y="-832" width="32" height="32" fill="black" />
<rect x="448" y="-832" width="32" height="32" fill="white" />
<rect x="544" y="-832" width="32" height="32" fill="rgb(255,0,0)" />
<rect x="576" y="-832" width="32" height="32" fill="white" />
<rect x="608" y="-832" width="32" height="32" fill="white" />
</g>
<g>
<rect x="480" y="-800" width="32" height="32" fill="black" />
<rect x="512" y="-800" width="32" height="32" fill="black" />
<rect x="448" y="-800" width="32" height="32" fill="white" />
<rect x="544" y="-800" width="32" height="32" fill="black" />
<rect x="576" y="-800" width="32" height="32" fill="rgb(255,0,255)" />
<rect x="608" y="-800" width="32" height="32" fill="white" />
</g>
<g>
<rect x="480" y="-768" width="32" height="32" fill="black" />
<rect x="512" y="-768" width="32" height="32" fill="black" />
<rect x="448" y="-768" width="32" height="32" fill="white" />
<rect x="544" y="-768" width="32" height="32" fill="black" />
<rect x="576" y="-768" width="32" height="32" fill="white" />
<rect x="608" y="-768" width="32" height="32" fill="rgb(0,0,255)" />
</g>
<g>
<rect x="480" y="-736" width="32" height="32" fill="black" />
<rect x="512" y="-736" width="32" height="32" fill="black" />
<rect x="448" y="-736" width="32" height="32" fill="white" />
<rect x="544" y="-736" width="32" height="32" fill="black" />
<rect x="576" y="-736" width="32" height="32" fill="rgb(255,0,0)" />
<rect x="608" y="-736" width="32" height="32" fill="white" />
</g>
<g>
<rect x="480" y="-704" width="32" height="32" fill="black" />
<rect x="512" y="-704" width="32" height="32" fill="black" />
<rect x="448" y="-704" width="32" height="32" fill="white" />
<rect x="544" y="-704" width="32" height="32" fill="black" />
<rect x="576" y="-704" width="32" height="32" fill="black" />
<rect x="608" y="-704" width="32" height="32" fill="rgb(255,0,255)" />
</g>
<g>
<rect x="480" y="-672" width="32" height="32" fill="black" />
<rect x="512" y="-672" width="32" height="32" fill="black" />
<rect x="448" y="-672" width="32" height="32" fill="white" />
<rect x="544" y="-672" width="32" height="32" fill="black" />
<rect x="576" y="-672" width="32" height="32" fill="black" />
<rect x="608" y="-672" width="32" height="32" fill="white" />
<rect x="640" y="-672" width="32" height="32" fill="rgb(0,0,255)" />
</g>
<g>
<rect x="480" y="-640" width="32" height="32" fill="black" />
<rect x="512" y="-640" width="32" height="32" fill="black" />
<rect x="448" y="-640" width="32" height="32" fill="white" />
<rect x="544" y="-640" width="32" height="32" fill="black" />
<rect x="576" y="-640" width="32" height="32" fill="black" />
<rect x="608" y="-640" width="32" height="32" fill="white" />
<rect x="640" y="-640" width="32" height="32" fill="black" />
<rect x="672" y="-640" width="32" height="32" fill="rgb(0,255,0)" />
</g>
<g>
<rect x="480" y="-608" width="32" height="32" fill="black" />
<rect x="512" y="-608" width="32" height="32" fill="black" />
<rect x="448" y="-608" width="32" height="32" fill="white" />
<rect x="544" y="-608" width="32" height="32" fill="black" />
<rect x="576" y="-608" width="32" height="32" fill="black" />
<rect x="608" y="-608" width="32" height="32" fill="white" />
<rect x="640" y="-608" width="32" height="32" fill="rgb(255,0,255)" />
<rect x="672" y="-608" width="32" height="32" fill="white" />
</g>
<g>
<rect x="480" y="-576" width="32" height="32" fill="black" />
<rect x="512" y="-576" width="32" height="32" fill="black" />
<rect x="448" y="-576" width="32" height="32" fill="white" />
<rect x="544" y="-576" width="32" height="32" fill="black" />
<rect x="576" y="-576" width="32" height="32" fill="black" />
<rect x="608" y="-576" width="32" height="32" fill="rgb(255,128,0)" />
<rect x="640" y="-576" width="32" height="32" fill="white" />
<rect x="672" y="-576" width="32" height="32" fill="white" />
</g>
<g>
<rect x="480" y="-544" width="32" height="32" fill="black" />
<rect x="512" y="-544" width="32" height="32" fill="black" />
<rect x="448" y="-544" width="32" height="32" fill="white" />
<rect x="544" y="-544" width="32" height="32" fill="black" />
<rect x="576" y="-544" width="32" height="32" fill="black" />
<rect x="608" y="-544" width="32" height="32" fill="white" />
<rect x="640" y="-544" width="32" height="32" fill="rgb(0,0,255)" />
<rect x="672" y="-544" width="32" height="32" fill="white" />
</g>
<g>
<rect x="480" y="-512" width="32" height="32" fill="black" />
<rect x="512" y="-512" width="32" height="32" fill="black" />
<rect x="448" y="-512" width="32" height="32" fill="white" />
<rect x="544" y="-512" width="32" height="32" fill="black" />
<rect x="576" y="-512" width="32" height="32" fill="black" />
<rect x="608" y="-512" width="32" height="32" fill="rgb(255,0,0)" />
<rect x="640" y="-512" width="32" height="32" fill="white" />
<rect x="672" y="-512" width="32" height="32" fill="white" />
</g>
<g>
<rect x="480" y="-480" width="32" height="32" fill="black" />
<rect x="512" y="-480" width="32" height="32" fill="black" />
<rect x="448" y="-480" width="32" height="32" fill="white" />
<rect x="544" y="-480" width="32" height="32" fill="black" />
<rect x="576" y="-480" width="32" height="32" fill="black" />
<rect x="608" y="-480" width="32" height="32" fill="black" />
<rect x="640" y="-480" width="32" height="32" fill="rgb(255,0,255)" />
<rect x="672" y="-480" width="32" height="32" fill="white" />
</g>
<g>
<rect x="480" y="-448" width="32" height="32" fill="black" />
<rect x="512" y="-448" width="32" height="32" fill="black" />
<rect x="448" y="-448" width="32" height="32" fill="white" />
<rect x="544" y="-448" width="32" height="32" fill="black" />
<rect x="576" y="-448" width="32" height="32" fill="black" />
<rect x="608" y="-448" width="32" height="32" fill="black" />
<rect x="640" y="-448" width="32" height="32" fill="white" />
<rect x="672" y="-448" width="32" height="32" fill="rgb(0,0,255)" />
</g>
<g>
<rect x="480" y="-416" width="32" height="32" fill="black" />
<rect x="512" y="-416" width="32" height="32" fill="black" />
<rect x="448" y="-416" width="32" height="32" fill="white" />
<rect x="544" y="-416" width="32" height="32" fill="black" />
<rect x="576" y="-416" width="32" height="32" fill="black" />
<rect x="608" y="-416" width="32" height="32" fill="black" />
<rect x="640" y="-416" width="32" height="32" fill="rgb(255,0,0)" />
<rect x="672" y="-416" width="32" height="32" fill="white" />
</g>
<g>
<rect x="480" y="-384" width="32" height="32" fill="black" />
<rect x="512" y="-384" width="32" height="32" fill="black" />
<rect x="448" y="-384" width="32" height="32" fill="white" />
<rect x="544" y="-384" width="32" height="32" fill="black" />
<rect x="576" y="-384" width="32" height="32" fill="black" />
<rect x="608" y="-384" width="32" height="32" fill="black" />
<rect x="640" y="-384" width="32" height="32" fill="black" />
<rect x="672" y="-384" width="32" height="32" fill="rgb(255,0,255)" />
</g>
<g>
<rect x="480" y="-352" width="32" height="32" fill="black" />
<rect x="512" y="-352" width="32" height="32" fill="black" />
<rect x="448" y="-352" width="32" height="32" fill="white" />
<rect x="544" y="-352" width="32" height="32" fill="black" />
<rect x="576" y="-352" width="32" height="32" fill="black" />
<rect x="608" y="-352" width="32" height="32" fill="black" />
<rect x="640" y="-352" width="32" height="32" fill="black" />
<rect x="672" y="-352" width="32" height="32" fill="white" />
<rect x="704" y="-352" width="32" height="32" fill="rgb(0,0,255)" />
</g>
<g>
<rect x="480" y="-320" width="32" height="32" fill="black" />
<rect x="512" y="-320" width="32" height="32" fill="black" />
<rect x="448" y="-320" width="32" height="32" fill="white" />
<rect x="544" y="-320" width="32" height="32" fill="black" />
<rect x="576" y="-320" width="32" height="32" fill="black" />
<rect x="608" y="-320" width="32" height="32" fill="black" />
<rect x="640" y="-320" width="32" height="32" fill="black" />
<rect x="672" y="-320" width="32" height="32" fill="white" />
<rect x="704" y="-320" width="32" height="32" fill="black" />
<rect x="736" y="-320" width="32" height="32" fill="rgb(0,255,0)" />
</g>
<g>
<rect x="480" y="-288" width="32" height="32" fill="black" />
<rect x="512" y="-288" width="32" height="32" fill="black" />
<rect x="448" y="-288" width="32" height="32" fill="white" />
<rect x="544" y="-288" width="32" height="32" fill="black" />
<rect x="576" y="-288" width="32" height="32" fill="black" />
<rect x="608" y="-288" width="32" height="32" fill="black" />
<rect x="640" y="-288" width="32" height="32" fill="black" />
<rect x="672" y="-288" width="32" height="32" fill="white" />
<rect x="704" y="-288" width="32" height="32" fill="rgb(255,0,255)" />
<rect x="736" y="-288" width="32" height="32" fill="white" />
</g>
<g>
<rect x="480" y="-256" width="32" height="32" fill="black" />
<rect x="512" y="-256" width="32" height="32" fill="black" />
<rect x="448" y="-256" width="32" height="32" fill="white" />
<rect x="544" y="-256" width="32" height="32" fill="black" />
<rect x="576" y="-256" width="32" height="32" fill="black" />
<rect x="608" y="-256" width="32" height="32" fill="black" />
<rect x="640" y="-256" width="32" height="32" fill="black" />
<rect x="672" y="-256" width="32" height="32" fill="rgb(255,128,0)" />
<rect x="704" y="-256" width="32" height="32" fill="white" />
<rect x="736" y="-256" width="32" height="32" fill="white" />
</g>
<g>
<rect x="480" y="-224" width="32" height="32" fill="black" />
<rect x="512" y="-224" width="32" height="32" fill="black" />
<rect x="448" y="-224" width="32" height="32" fill="white" />
<rect x="544" y="-224" width="32" height="32" fill="black" />
<rect x="576" y="-224" width="32" height="32" fill="black" />
<rect x="608" y="-224" width="32" height="32" fill="black" />
<rect x="640" y="-224" width="32" height="32" fill="black" />
<rect x="672" y="-224" width="32" height="32" fill="white" />
<rect x="704" y="-224" width="32" height="32" fill="rgb(0,0,255)" />
<rect x="736" y="-224" width="32" height="32" fill="white" />
</g>
<g>
<rect x="480" y="-192" width="32" height="32" fill="black" />
<rect x="512" y="-192" width="32" height="32" fill="black" />
<rect x="448" y="-192" width="32" height="32" fill="white" />
<rect x="544" y="-192" width="32" height="32" fill="black" />
<rect x="576" y="-192" width="32" height="32" fill="black" />
<rect x="608" y="-192" width="32" height="32" fill="black" />
<rect x="640" y="-192" width="32" height="32" fill="black" />
<rect x="672" y="-192" width="32" height="32" fill="rgb(255,0,0)" />
<rect x="704" y="-192" width="32" height="32" fill="white" />
<rect x="736" y="-192" width="32" height="32" fill="white" />
</g>
<g>
<rect x="480" y="-160" width="32" height="32" fill="black" />
<rect x="512" y="-160" width="32" height="32" fill="black" />
<rect x="448" y="-160" width="32" height="32" fill="white" />
<rect x="544" y="-160" width="32" height="32" fill="black" />
<rect x="576" y="-160" width="32" height="32" fill="black" />
<rect x="608" y="-160" width="32" height="32" fill="black" />
<rect x="640" y="-160" width="32" height="32" fill="black" />
<rect x="672" y="-160" width="32" height="32" fill="black" />
<rect x="704" y="-160" width="32" height="32" fill="rgb(255,0,255)" />
<rect x="736" y="-160" width="32" height="32" fill="white" />
</g>
<g>
<rect x="480" y="-128" width="32" height="32" fill="black" />
<rect x="512" y="-128" width="32" height="32" fill="black" />
<rect x="448" y="-128" width="32" height="32" fill="white" />
<rect x="544" y="-128" width="32" height="32" fill="black" />
<rect x="576" y="-128" width="32" height="32" fill="black" />
<rect x="608" y="-128" width="32" height="32" fill="black" />
<rect x="640" y="-128" width="32" height="32" fill="black" />
<rect x="672" y="-128" width="32" height="32" fill="black" />
<rect x="704" y="-128" width="32" height="32" fill="white" />
<rect x="736" y="-128" width="32" height="32" fill="rgb(0,0,255)" />
</g>
<g>
<rect x="480" y="-96" width="32" height="32" fill="black" />
<rect x="512" y="-96" width="32" height="32" fill="black" />
<rect x="448" y="-96" width="32" height="32" fill="white" />
<rect x="544" y="-96" width="32" height="32" fill="black" />
<rect x="576" y="-96" width="32" height="32" fill="black" />
<rect x="608" y="-96" width="32" height="32" fill="black" />
<rect x="640" y="-96" width="32" height="32" fill="black" />
<rect x="672" y="-96" width="32" height="32" fill="black" />
<rect x="704" y="-96" width="32" height="32" fill="rgb(255,0,0)" />
<rect x="736" y="-96" width="32" height="32" fill="white" />
</g>
<g>
<rect x="480" y="-64" width="32" height="32" fill="black" />
<rect x="512" y="-64" width="32" height="32" fill="black" />
<rect x="448" y="-64" width="32" height="32" fill="white" />
<rect x="544" y="-64" width="32" height="32" fill="black" />
<rect x="576" y="-64" width="32" height="32" fill="black" />
<rect x="608" y="-64" width="32" height="32" fill="black" />
<rect x="640" y="-64" width="32" height="32" fill="black" />
<rect x="672" y="-64" width="32" height="32" fill="black" />
<rect x="704" y="-64" width="32" height="32" fill="black" />
<rect x="736" y="-64" width="32" height="32" fill="rgb(255,0,255)" />
</g>
<g>
<rect x="480" y="-32" width="32" height="32" fill="black" />
<rect x="512" y="-32" width="32" height="32" fill="black" />
<rect x="448" y="-32" width="32" height="32" fill="white" />
<rect x="544" y="-32" width="32" height="32" fill="black" />
<rect x="576" y="-32" width="32" height="32" fill="black" />
<rect x="608" y="-32" width="32" height="32" fill="black" />
<rect x="640" y="-32" width="32" height="32" fill="black" />
<rect x="672" y="-32" width="32" height="32" fill="black" />
<rect x="704" y="-32" width="32" height="32" fill="black" />
<rect x="736" y="-32" width="32" height="32" fill="white" />
<rect x="768" y="-32" width="32" height="32" fill="rgb(0,0,255)" />
</g>
</g>
</svg>