<?xml version="1.0" encoding="UTF-8" standalone="no"?>
<!DOCTYPE svg PUBLIC "-//W3C//DTD SVG 1.1//EN"
 "http://www.w3.org/Graphics/SVG/1.1/DTD/svg11.dtd">
<!-- Generated by graphviz version 7.1.0 (0)
 -->
<!-- Title: R Pages: 1 -->
<svg width="123pt" height="476pt"
 viewBox="0.00 0.00 123.00 476.00" xmlns="http://www.w3.org/2000/svg" xmlns:xlink="http://www.w3.org/1999/xlink">
<g id="graph0" class="graph" transform="scale(1 1) rotate(0) translate(4 472)">
<title>R</title>
<polygon fill="white" stroke="none" points="-4,4 -4,-472 119,-472 119,4 -4,4"/>
<!-- start -->
<g id="node1" class="node">
<title>start</title>
<text text-anchor="middle" x="57" y="-446.3" font-family="Times,serif" font-size="14.00">start</text>
</g>
<!-- r1_0 -->
<g id="node2" class="node">
<title>r1_0</title>
<ellipse fill="none" stroke="black" cx="57" cy="-378" rx="27" ry="18"/>
<text text-anchor="middle" x="57" y="-374.3" font-family="Times,serif" font-size="14.00">0</text>
</g>
<!-- start&#45;&gt;r1_0 -->
<g id="edge1" class="edge">
<title>start&#45;&gt;r1_0</title>
<path fill="none" stroke="black" d="M57,-432.05C57,-424.68 57,-415.84 57,-407.51"/>
<polygon fill="black" stroke="black" points="60.5,-407.79 57,-397.79 53.5,-407.79 60.5,-407.79"/>
</g>
<!-- r2_0 -->
<g id="node3" class="node">
<title>r2_0</title>
<ellipse fill="none" stroke="black" cx="57" cy="-306" rx="27" ry="18"/>
<text text-anchor="middle" x="57" y="-302.3" font-family="Times,serif" font-size="14.00">0</text>
</g>
<!-- r1_0&#45;&gt;r2_0 -->
<g id="edge2" class="edge">
<title>r1_0&#45;&gt;r2_0</title>
<path fill="none" stroke="black" d="M57,-359.7C57,-352.41 57,-343.73 57,-335.54"/>
<polygon fill="black" stroke="black" points="60.5,-335.62 57,-325.62 53.5,-335.62 60.5,-335.62"/>
</g>
<!-- r3_0 -->
<g id="node4" class="node">
<title>r3_0</title>
<ellipse fill="none" stroke="black" cx="57" cy="-234" rx="27" ry="18"/>
<text text-anchor="middle" x="57" y="-230.3" font-family="Times,serif" font-size="14.00">0</text>
</g>
<!-- r2_0&#45;&gt;r3_0 -->
<g id="edge3" class="edge">
<title>r2_0&#45;&gt;r3_0</title>
<path fill="none" stroke="black" d="M57,-287.7C57,-280.41 57,-271.73 57,-263.54"/>
<polygon fill="black" stroke="black" points="60.5,-263.62 57,-253.62 53.5,-263.62 60.5,-263.62"/>
</g>
<!-- r4_0A -->
<g id="node5" class="node">
<title>r4_0A</title>
<ellipse fill="none" stroke="black" cx="57" cy="-162" rx="27" ry="18"/>
<text text-anchor="middle" x="57" y="-158.3" font-family="Times,serif" font-size="14.00">0A</text>
</g>
<!-- r3_0&#45;&gt;r4_0A -->
<g id="edge4" class="edge">
<title>r3_0&#45;&gt;r4_0A</title>
<path fill="none" stroke="black" d="M57,-215.7C57,-208.41 57,-199.73 57,-191.54"/>
<polygon fill="black" stroke="black" points="60.5,-191.62 57,-181.62 53.5,-191.62 60.5,-191.62"/>
</g>
<!-- r5_1B -->
<g id="node6" class="node">
<title>r5_1B</title>
<ellipse fill="none" stroke="black" cx="57" cy="-90" rx="27" ry="18"/>
<text text-anchor="middle" x="57" y="-86.3" font-family="Times,serif" font-size="14.00">1B</text>
</g>
<!-- r4_0A&#45;&gt;r5_1B -->
<g id="edge5" class="edge">
<title>r4_0A&#45;&gt;r5_1B</title>
<path fill="none" stroke="black" d="M57,-143.7C57,-136.41 57,-127.73 57,-119.54"/>
<polygon fill="black" stroke="black" points="60.5,-119.62 57,-109.62 53.5,-119.62 60.5,-119.62"/>
</g>
<!-- r6_0B -->
<g id="node7" class="node">
<title>r6_0B</title>
<ellipse fill="none" stroke="black" cx="27" cy="-18" rx="27" ry="18"/>
<text text-anchor="middle" x="27" y="-14.3" font-family="Times,serif" font-size="14.00">0B</text>
</g>
<!-- r5_1B&#45;&gt;r6_0B -->
<g id="edge6" class="edge">
<title>r5_1B&#45;&gt;r6_0B</title>
<path fill="none" stroke="black" d="M49.89,-72.41C46.49,-64.48 42.33,-54.78 38.5,-45.84"/>
<polygon fill="black" stroke="black" points="41.81,-44.67 34.65,-36.86 35.38,-47.43 41.81,-44.67"/>
</g>
<!-- r6_1B -->
<g id="node8" class="node">
<title>r6_1B</title>
<ellipse fill="none" stroke="black" cx="88" cy="-18" rx="27" ry="18"/>
<text text-anchor="middle" x="88" y="-14.3" font-family="Times,serif" font-size="14.00">1B</text>
</g>
<!-- r5_1B&#45;&gt;r6_1B -->
<g id="edge7" class="edge">
<title>r5_1B&#45;&gt;r6_1B</title>
<path fill="none" stroke="black" d="M64.35,-72.41C67.86,-64.48 72.15,-54.78 76.12,-45.84"/>
<polygon fill="black" stroke="black" points="79.24,-47.41 80.09,-36.85 72.84,-44.58 79.24,-47.41"/>
</g>
</g>
</svg>
